<svg xmlns="http://www.w3.org/2000/svg" viewBox="0 0 64 64" role="img" aria-label="오늘의직관">
  <!--
    티켓을 주인공으로 둔다. 직관은 경기장에 간 행위이고, 그 증거가 티켓이다.
    안쪽 두 곡선은 야구공 실밥이며, 단색으로 쓰거나 반전해도 사라지지 않도록
    선을 얹지 않고 도형에서 파낸다.
  -->
  <path fill="currentColor" fill-rule="evenodd" d="
    M8 14h48a4 4 0 0 1 4 4v7.5a6.5 6.5 0 0 0 0 13V46a4 4 0 0 1-4 4H8a4 4 0 0 1-4-4v-7.5a6.5 6.5 0 0 0 0-13V18a4 4 0 0 1 4-4Z
    M23.4 21.6a2 2 0 0 0-2.8 2.8c3.9 3.9 3.9 11.2 0 15.2a2 2 0 1 0 2.8 2.8c5.4-5.4 5.4-15.4 0-20.8Z
    M43.4 21.6c-5.4 5.4-5.4 15.4 0 20.8a2 2 0 0 0 2.8-2.8c-3.9-4-3.9-11.3 0-15.2a2 2 0 0 0-2.8-2.8Z
  "/>
</svg>
